<?xml version="1.0" encoding="UTF-8" standalone="no"?>
<svg width="31px" height="31px" version="1.1" xmlns="http://www.w3.org/2000/svg" xmlns:xlink="http://www.w3.org/1999/xlink">
    <!-- Generator: sketchtool 3.8.1 (29687) - http://www.bohemiancoding.com/sketch -->
    <title>BB72E049-DC03-4A59-958D-854CB2F13A91</title>
    <desc>Created with sketchtool.</desc>
    <defs>
        <polygon id="path-1" points="0.000176546392 30.7535121 30.1094575 30.7535121 30.1094575 0.217920817 0.000176546392 0.217920817 0.000176546392 30.7535121"></polygon>
    </defs>
<g id="fondy_logo">
                    <g id="Group-25" transform="translate(0.000000, 0.139678)">
                        <g id="Group">
                            <g id="Group-12">
                                <mask id="mask-2" fill="white">
                                    <use xmlns:xlink="http://www.w3.org/1999/xlink" xlink:href="#path-1"/>
                                </mask>
                                <g id="Clip-11"/>
                                <path d="M14.9257616,0.217920817 L14.4829832,0.484689655 L9.42704768,3.5493129 L9.03299613,3.80392337 L9.03299613,4.30277395 L9.03299613,9.21081992 L4.92582088,11.6943448 L4.51658634,11.9496705 L4.51658634,12.4474483 L4.51658634,17.3558519 L0.409411082,19.8393768 L0.000176546392,20.0943448 L0.000176546392,20.5928378 L0.000176546392,26.6634381 L0.000176546392,27.161931 L0.367039948,27.4168991 L5.4236817,30.4811648 L5.84739304,30.7443576 L6.28028479,30.4854559 L10.4912693,28.0044342 L14.6507023,30.4833103 L15.0899497,30.7454304 L15.5288441,30.4822375 L19.6473183,28.014447 L23.5415786,30.4718672 L23.9885941,30.7536552 L24.441259,30.4815223 L29.6126559,27.4172567 L30.1094575,27.1622886 L30.1094575,26.6634381 L30.1094575,20.5928378 L30.1094575,20.0943448 L29.7002229,19.8393768 L25.5930477,17.3558519 L25.5930477,12.4474483 L25.5930477,11.9496705 L25.1838131,11.6943448 L21.0766379,9.21081992 L21.0766379,4.30277395 L21.0766379,3.80392337 L20.5533544,3.5493129 L15.418326,0.484689655 L14.9257616,0.217920817 Z M15.0542874,1.2381507 L20.1730735,4.30277395 L20.1730735,9.7093129 L24.6894832,12.4474483 L24.6894832,17.8543448 L29.2062461,20.5928378 L29.2062461,26.6634381 L24.0539162,29.7277037 L19.6858054,26.9895683 L15.1012487,29.7277037 L10.4972719,26.9895683 L5.91659923,29.7277037 L0.903387887,26.6634381 L0.903387887,20.5928378 L5.41944459,17.8543448 L5.41944459,12.4474483 L9.93585438,9.7093129 L9.93585438,4.30277395 L15.0542874,1.2381507 Z" id="Fill-10" fill="#3D3D3D" mask="url(#mask-2)"/>
                            </g>
                            <polygon id="Fill-13" fill="#5AC341" points="18.9689211 9.7501507 15.0541814 12.162871 11.140501 9.7501507 11.140501 4.92578289 15.0541814 2.51342018 18.9689211 4.92578289"/>
                            <polygon id="Fill-15" fill="#3D3D3D" points="18.9689211 26.0401073 15.0541814 28.4528276 11.140501 26.0401073 11.140501 21.2157395 15.0541814 18.8033768 18.9689211 21.2157395"/>
                            <polygon id="Fill-17" fill="#3D3D3D" points="28.0017407 26.0401073 24.0873541 28.4528276 20.1733206 26.0401073 20.1733206 21.2157395 24.0873541 18.8033768 28.0017407 21.2157395"/>
                            <polygon id="Fill-19" fill="#3D3D3D" points="9.935925 26.0401073 5.87112088 28.4528276 1.80666985 26.0401073 1.80666985 21.2157395 5.87112088 18.8033768 9.935925 21.2157395"/>
                            <polygon id="Fill-21" fill="#3D3D3D" points="14.4525113 17.8956833 10.5384778 20.3076884 6.62409124 17.8956833 6.62409124 13.0706003 10.5384778 10.6582375 14.4525113 13.0706003"/>
                            <polygon id="Fill-23" fill="#3D3D3D" points="23.4853309 17.8956833 19.5712974 20.3076884 15.6569108 17.8956833 15.6569108 13.0706003 19.5712974 10.6582375 23.4853309 13.0706003"/>
                        </g>
                    </g>
                </g>
</svg>
